<?xml version="1.0" standalone="no"?>
<!DOCTYPE svg PUBLIC "-//W3C//DTD SVG 1.1//EN" "http://www.w3.org/Graphics/SVG/1.1/DTD/svg11.dtd">
<svg xmlns="http://www.w3.org/2000/svg" viewBox="0 0 798.32 247.39" width="798.3200073242188" height="247.38999938964844"><defs><style>.cls-1{fill:#338fbf;}</style></defs><g id="Layer_2" data-name="Layer 2"><g id="Layer_1-2" data-name="Layer 1"><path class="cls-1" d="M448.26,53.47a6.55,6.55,0,0,0,4.59,1.22A3.49,3.49,0,0,1,448.26,53.47Zm6.48-4.71a3.61,3.61,0,0,0-4.78-2A5.57,5.57,0,0,1,454.74,48.76ZM387.69,34.69a.11.11,0,0,1,0-.2l.13-.05.63-.1c.37,0,.73-.05,1.09-.11a4.37,4.37,0,0,0,.7-.22,1.17,1.17,0,0,1,.88,0,6.72,6.72,0,0,0,.9.28,1.44,1.44,0,0,1,1,.61l0,0a.68.68,0,0,0,.85.19,3.09,3.09,0,0,0,1-.75,12.25,12.25,0,0,1,.87-.9A1,1,0,0,0,396,33c.06-.27.11-.53.17-.8A1.32,1.32,0,0,0,396,31v0a.25.25,0,0,1,.05-.35.26.26,0,0,0,.07-.25,8.53,8.53,0,0,0-.62-1.93.75.75,0,0,1,.14-.89,7.24,7.24,0,0,1,.73-.62c.13-.11.3-.18.42-.3a4.33,4.33,0,0,1,1-.71c.47-.24.94-.47,1.42-.68.22-.1.46-.17.69-.25s.22,0,.25.08a5.35,5.35,0,0,1,.11.55c0,.07,0,.1.09.11.24,0,.27.07.32.31a.24.24,0,0,0,.11.15.37.37,0,0,1,.25.43.16.16,0,0,0,.12.2.42.42,0,0,1,.31.35c0,.1,0,.2,0,.3a1.11,1.11,0,0,1-.18.77,1.06,1.06,0,0,1-.46.38c-.08,0-.15.08-.12.19a4.82,4.82,0,0,1,.14,1c0,.39,0,.78,0,1.17a.63.63,0,0,0,.1.42.22.22,0,0,1,0,.18c-.05.15,0,.16.1.24s.47.32.71.5a.34.34,0,0,1,.14.39s0,.09,0,.14l0,.22a.69.69,0,0,0,0,.2,2.68,2.68,0,0,1,.3.77.47.47,0,0,0,.11.36.12.12,0,0,1,0,.1.17.17,0,0,0,.13.21.21.21,0,0,1,.09.34c-.08.09,0,.13,0,.17a.28.28,0,0,1,.16.23.5.5,0,0,0,0,.13.42.42,0,0,1-.28.6s-.08.06-.08.09-.06.16-.16.18a1,1,0,0,1-.53,0,.15.15,0,0,0-.18,0,.36.36,0,0,1-.2.08l-.38,0a1,1,0,0,1-.3-.06,4.64,4.64,0,0,1-.44-.23c-.07,0-.15-.11-.25,0a.49.49,0,0,0,.15.1,7.61,7.61,0,0,0,.79.31,1.11,1.11,0,0,1,.57.4c.42.48.85,1,1.29,1.43a1.59,1.59,0,0,0,.39.27c.18.09.37.15.56.23a.28.28,0,0,1,.19.24s.06.09.1.12l.44.35c.09.08.06.16,0,.19a.29.29,0,0,1-.13,0,2.42,2.42,0,0,1-1.13-.44,4.15,4.15,0,0,1-.71-.68,11.65,11.65,0,0,0-1.5-1.48L401,37.2a4.87,4.87,0,0,0-.47-.32c-.24-.13-.48-.23-.73-.34a2.8,2.8,0,0,0-.28-.06l0,.06.13.09a4.58,4.58,0,0,0,1.24.74,1.17,1.17,0,0,1,.61.59,12,12,0,0,0,1.11,1.69.44.44,0,0,0,.18.15,1.62,1.62,0,0,0,.41.17c.36.07.39.41.55.65,0,0,0,.07,0,.1a.53.53,0,0,0,.05.18c.05.07.13.13.18.2s0,.22-.11.2a.89.89,0,0,1-.31-.08,3.11,3.11,0,0,1-1.21-1.12c-.36-.52-.7-1.05-1.05-1.58a3.28,3.28,0,0,0-.72-.77,5.86,5.86,0,0,0-1.87-.89,2.09,2.09,0,0,1-.85-.5.54.54,0,0,0-.4-.13l-.29,0a2.66,2.66,0,0,1-.82-.28,1.65,1.65,0,0,0-1.09-.16l-1.41.32a3.63,3.63,0,0,1-1.09.08.72.72,0,0,1-.66-.65c0-.25-.11-.38-.36-.41-.42,0-.83-.07-1.25-.07a5.47,5.47,0,0,1-1.14-.08,3.24,3.24,0,0,0-1-.16,2.58,2.58,0,0,1-.39,0A.62.62,0,0,1,387.69,34.69Zm14.1-.43H402C402,34.13,401.9,34.13,401.79,34.26ZM177,65.34l-.65,0V63.85l-2.43,0h0l-1.48,0,1.8-3.16-.85-.06,1.35-2.06-.84-.07,1.8-2.32-.79-.06,1.75-3v.09l0-.07.67,1.14,1-1.6L177,52.61l3-3.81-1.3-.11,2.87-4.88V44l0-.12,2.87,4.88-1.3.1,2.32,3,.76-1.29v.12l0-.09,2.11,3.6-1,.07,2.18,2.82-1,.08,1.64,2.5-1,.08,1.37,3.83-3.92,0v1.91h-.79V63.51l-2.95,0h-.81v2H181v-4h-1.54l1.41,2.46-3.91,0Zm7.74-12.58.1.16.1-.18Zm-2.64,9,.21-.37h-.21Zm257.37-4.47a.28.28,0,0,1,.21-.34.5.5,0,0,1,.4,0l.08,0a7.45,7.45,0,0,1,.9.88l.08.09h0l0,0,.1.09a3.59,3.59,0,0,1,.39.39l.05.06a6.13,6.13,0,0,1,3.82-2.12h0l.53-.07a2.11,2.11,0,0,1,.19-.51c-.61,0-1.22-.08-1.83-.14h0a1.3,1.3,0,0,1-1.26.3l-.12-.06a1.08,1.08,0,0,1-.51-.64,4.83,4.83,0,0,1,0-1.47c.11-.68.33-.77,1-.57a1.83,1.83,0,0,0,.26.07,0,0,0,0,0,0,0v0c.68,0,1,.18,1,.58a7.24,7.24,0,0,1,1.46-.33l1.39-.25a5,5,0,0,1-.65-2,.78.78,0,0,0,.33.09l3.13-.16h1V51c0-.58-.7-1.06-1.58-1.08L447,49.82h0a4.53,4.53,0,0,1,2.78-3.4,4.3,4.3,0,0,1,5.61,2.83c.06.17.11.34.17.56h0l.11-.06a2.28,2.28,0,0,1,2.15,0c.16.09.2.22,0,.34l-1.07.59v0a1.59,1.59,0,0,1,.39,1.36c0,.28-.22.36-.43.2s-.64-.55-1-.84l-.13-.12s0,0,0,0A5,5,0,0,1,454,54.48a4.12,4.12,0,0,1-1.31.62,6.73,6.73,0,0,0,.76.38,2.51,2.51,0,0,1,.2-.29.45.45,0,0,0,.4-.2c.6-.33,1.06-.32,1.39,0l0,0h0a1.49,1.49,0,0,0,.46.25c.49.1.52.45.33.76a13.29,13.29,0,0,1-1.08,1.42.84.84,0,0,1-.86.32l-.09,0c-.66,0-1.31.09-2,.15h-.08v0l-.52.39.37.39a1.68,1.68,0,0,1,.43.79c.94.43.49,1-.91,1.54l-.09,0a11.65,11.65,0,0,1-1.46.41,2,2,0,0,1-.59,0,3,3,0,0,1-.53.84l0,0h0a.61.61,0,0,1-.07.1,6.23,6.23,0,0,1-.78,1.1.52.52,0,0,1-.4.08.27.27,0,0,1-.26-.29c.05-.66.19-2.3.27-3.27a.69.69,0,0,1,.55-.62,3.49,3.49,0,0,1-.47-.52c0-.11-.14-.25-.22-.43h0l-.35-.2a4.2,4.2,0,0,1-.44.29l-.07,0a6.8,6.8,0,0,1-1.22.5,10.63,10.63,0,0,0-1.29.66l-.07,0a7.58,7.58,0,0,1-1.22.49,1.25,1.25,0,0,1-.74,0,2.09,2.09,0,0,1-.19.36l-.06,0-.53.21a.69.69,0,0,1-.92-.45C440,59.55,439.61,58,439.43,57.32Zm15.31-8.56a3.61,3.61,0,0,0-4.78-2A5.57,5.57,0,0,1,454.74,48.76Zm-6.48,4.71a3.49,3.49,0,0,0,4.59,1.22A6.55,6.55,0,0,1,448.26,53.47Zm1-3.23-1.41.17s-.05.05,0,.08C448.34,50.92,448.86,50.84,449.29,50.24Zm349,26.45v170.7H0V76.69H2.18c7.52-5.41,32-21.94,32.4-22.21h0v-.1c3.79-3.79,7.79-7.4,11.31-11.43,3.34-3.83,6.21-8.08,9.22-12.19,4.38-5.95,8.71-11.93,13.05-17.91C70,9,71.81,5.14,73.73,1.35A2,2,0,0,1,75.41.56l.16,0L75.41,0H93.34l29.31,40.44c.55-.76,1.11-1.52,1.66-2.29,1.29-2.69,2.55-5.39,3.9-8a1.38,1.38,0,0,1,1.17-.55c1.37.2,2.7.62,4.06.82a2.91,2.91,0,0,0,1.54-.26,6.2,6.2,0,0,1,4.84-.59c.55.16,1.25-.2,2.12-.37l0,.11.14-.09,21.42,30.91a26.42,26.42,0,0,1,3.06,4.3c3.21.43,6.48.73,9.72.91l.65,0c2.31.12,4.62.18,6.87.18,9.72,0,21-2.53,36.37-4.82l.09-9.5c-3.89.13-8-2.55-9.25-7.6a12.56,12.56,0,0,1-.35-2.05c-.64-6.2,3.88-11.79,8.58-11.55,3.58.45,7,3.35,8.76,7.62a6.47,6.47,0,0,1,5.25-2.75c3.1.39,6,3,7.52,6.69s-.89,8.86-3.69,10.43a6.51,6.51,0,0,1-3.39.83l.06,6.12a306.71,306.71,0,0,1,34-1.82l2.06-.15c1.49-.1,3-.15,4.47-.32a5.22,5.22,0,0,0,3.23-1.36,2.23,2.23,0,0,1,2.27-.48c1.77.43,2.66-.49,3.31-1.8a3.74,3.74,0,0,0,0-4.1,1.08,1.08,0,0,0-.75-.4c-.82,0-1.65,0-2.48.1s-1.72.21-2.58.28a9.07,9.07,0,0,1-2.14.1,16.58,16.58,0,0,1-4.61-1.24,2.53,2.53,0,0,0-2.17-.12,5.64,5.64,0,0,0-2.23-1.53,44.7,44.7,0,0,0-4.61-1c-2.08-.51-5.79-.16-6.23-.66-1.48-1.71,4.32-2.78,3.77-3.86s4.81-1.88,4.81-2.93,3.9-.91,3.9-1.85a4.61,4.61,0,0,1,3.37,0,3.19,3.19,0,0,0,1.45,0,15.24,15.24,0,0,0,2.57-.3c-.87-.2-1.74-.46-2.62-.58a5.41,5.41,0,0,1-2.93-1c-.25-.21-.69-.17-1-.3a2.5,2.5,0,0,1-.58-.4c.14-.17.25-.41.44-.49a5,5,0,0,1,2.78-.58c.47.06.95.06,1.42.1a3.1,3.1,0,0,0,1.74-.34c1.09-.57,2.26-1,3.4-1.44.25-.11.68-.25.94-.33.89-.24,1.78-.45,2.85-.73a14.47,14.47,0,0,0-1.49-.1c-.64,0-1.27.19-1.9.16-.32,0-.63-.33-.94-.51.28-.25.56-.72.83-.71a1.81,1.81,0,0,0,1.61-1,2.91,2.91,0,0,1,1.37-.79c.66-.21,1.32-.4,2-.56a5,5,0,0,0,2.21-1,1.6,1.6,0,0,1,.94-.3,5.78,5.78,0,0,0,3.86-1.27,2,2,0,0,1,1.38-.26c.82.11,1.21.06,1.66-.64a.87.87,0,0,1,1.17-.44c.81.31,1.32-.28,1.76-.76a2.82,2.82,0,0,1,1.66-.75c1.33-.33,2.75-.18,4-.86a3.71,3.71,0,0,1,1.92-.18,5.8,5.8,0,0,0,2.77-.33,1.38,1.38,0,0,1,.61,0c.73.09,1.45.21,2.18.29.56.06,1.13,0,1.24.81,0,.15.34.33.54.36,1.29.19,2.5.85,3.88.57l.22,0c.66-.05,1,.4,1,1.06a1.09,1.09,0,0,0,.32.8c.56.53,1.2.25,1.8.33a.73.73,0,0,1,.53,1.26c-.65.72-1.3,1.54-2.51,1.13a2.9,2.9,0,0,0-1.05.05c0,.08,0,.17,0,.25a13.25,13.25,0,0,0,1.41,0,2.77,2.77,0,0,1,3,2c.24.61.41,1,1.05,1.1a.85.85,0,0,1,.4.75,1.1,1.1,0,0,1-.58.64c.13,0,.26,0,.4,0,.78,0,1.08.32,1,1.08,0,.55.15.89.67,1a12.38,12.38,0,0,0,2.08.35A3.76,3.76,0,0,1,327.24,34c.68.69.5,1.28-.42,1.55-.51.16-1,.45-1.49.58a3.06,3.06,0,0,1-1.31.08,2.31,2.31,0,0,0-2.14.33,1.49,1.49,0,0,1-1,.27c-1.53-.08-3.07-.14-4.58-.37a8.14,8.14,0,0,1-1.26-.28,10.82,10.82,0,0,1-1.56-.58,7.24,7.24,0,0,0-2.67-.66,16.17,16.17,0,0,1-2.69-.3,18.48,18.48,0,0,0-4.64,0,11.76,11.76,0,0,0-2,.22A1.78,1.78,0,0,1,303.16,36a2.35,2.35,0,0,1-.49.17c-1.83.22-3.62.84-5.51.65-.22,0-.46.23-.66.34l2.26.67a.55.55,0,0,0,.31,0,6.48,6.48,0,0,1,4.06,0,1.74,1.74,0,0,0,1.05-.08c.86-.29,1.68-.68,2.54-1a2.38,2.38,0,0,1,1.27-.06c1.2.29,2.37.67,3.56,1a8.1,8.1,0,0,0,1.39.25c.7.08,1.45,0,2.13.14a3.6,3.6,0,0,1,.66.2,17.64,17.64,0,0,0,3,.75,6,6,0,0,1,1.23.69c.95.51,1.92,1,2.86,1.51a3,3,0,0,1,.56,3.94,2.92,2.92,0,0,1-2,.93,1.38,1.38,0,0,1-.76-.13c-.78-.49-1.51-1.06-2.29-1.57s-1.37-.85-2.07-1.26c-.07,0-.24,0-.35.09a7.53,7.53,0,0,0-.86.4l-.18.12a4.82,4.82,0,0,1-4.32.63,4.51,4.51,0,0,0-.53-.07l-.05.2c.67.19,1.33.4,2,.58a13.75,13.75,0,0,1,1.57.36.83.83,0,0,1,.49,1.25,2.2,2.2,0,0,1-2.88,1.61,2.25,2.25,0,0,0-1.35.22,3,3,0,0,1-1.54.17,2.82,2.82,0,0,0-1.67.15,5.41,5.41,0,0,1-2,.36,5.29,5.29,0,0,0-2.63.5,2.34,2.34,0,0,1-2.36,0,2,2,0,0,0-1.91-.09c-.52.22-1.06.37-1.28-.42,0-.09-.24-.17-.36-.17-.38,0-.76.07-1.33.12,1.21,1.32,2.13,2.71,3.71,3.35,1.2.48,2.45.81,3.67,1.22.86.3,1.7.62,2.55.93s1.91.79,2.9,1c2.54.65,5.05,1.37,7.5,2.24a44,44,0,0,1,8.21,3.89l.1.1c4,4,9.32,6.26,14.77,7.52v-.5a.06.06,0,0,1,.06-.06H339V65A24.12,24.12,0,0,1,334,63a.53.53,0,1,1,.53-.92s.3.16.82.4c1.73-.13,5.07-.69,6.55-3h-.55a0,0,0,0,1,0,0v-.42a0,0,0,0,1,0,0h.78V55.15h-1a.07.07,0,0,1-.07-.07v-.86a.07.07,0,0,1,.07-.07h1V51.59a23,23,0,0,1-6.37-2.46.54.54,0,0,1,.57-.91s.34.21.95.52a6.53,6.53,0,0,0,4.7-2.91h-.48a0,0,0,0,1,0,0v-.42s0,0,0,0h.63V42.62h-1a.07.07,0,0,1-.07-.07v-.86a.07.07,0,0,1,.07-.07h1V38.45a16.07,16.07,0,0,1-4.32-3.16.53.53,0,0,1,.79-.71s.37.39,1,.92a11.72,11.72,0,0,0,9-4.58V28.54h-1a0,0,0,0,1,0,0v-.43a0,0,0,0,1,0,0h1v-.87h-1a0,0,0,0,1,0,0v-.43l0,0h1v-.87h-1a0,0,0,0,1,0,0v-.43l0,0h1v-.86h-1a0,0,0,0,1,0,0V24a0,0,0,0,1,0,0h1V21.62a.07.07,0,0,1,.07-.07h.86a.07.07,0,0,1,.07.07V24h1.06a0,0,0,0,1,0,0v.43s0,0,0,0h-1.06v.86h1.06a0,0,0,0,1,0,0v.43a0,0,0,0,1,0,0h-1.06v.87h1.06a0,0,0,0,1,0,0v.43a0,0,0,0,1,0,0h-1.06v.87h1.06a0,0,0,0,1,0,0v.43a0,0,0,0,1,0,0h-1.06v2.57c1.14,1.55,4,4.77,8.46,4.56.27-.2.54-.42.81-.64a.54.54,0,0,1,.75.08.53.53,0,0,1-.07.75,21.13,21.13,0,0,1-4,2.63v3.13h1.23a.07.07,0,0,1,.07.07v.86a.07.07,0,0,1-.07.07h-1.23v2.72h.7a0,0,0,0,1,0,0v.42s0,0,0,0h-.54A5.58,5.58,0,0,0,360,48.92q.78-.35,1.56-.72a.53.53,0,0,1,.71.24.53.53,0,0,1-.24.72,31.83,31.83,0,0,1-6.52,2.39v2.6h1.23a.07.07,0,0,1,.07.07v.86a.07.07,0,0,1-.07.07h-1.23v.38h0c0,1.17,0,2.34,0,3.51h.58s0,0,0,0v.42s0,0,0,0h-.47a6.58,6.58,0,0,0,5.41,3.11c.44-.18.89-.37,1.33-.57a.53.53,0,0,1,.7.27.54.54,0,0,1-.27.71,38.44,38.44,0,0,1-4.29,1.62v4.22h.67a.06.06,0,0,1,.06.06v.66a.06.06,0,0,1-.06.06h-.67v.82c3.32-.31,5.64-.72,6.26-.84H365c.8,0,1.61,0,2.41,0h0c.41,0,.59-.11.56-.55,0-.26,0-.52,0-.78s.11-.63.53-.63.57.22.54.62c0,.19,0,.39,0,.72.94-.48,1.81-.9,2.66-1.37.12-.07.11-.39.14-.59.06-.41-.2-1,.51-1s.58.49.63,1a24,24,0,0,0,2.53-1.36c.21-.14.18-.69.2-1.06s.21-.61.55-.54a.72.72,0,0,1,.35.24c.07.07.14.16.2.23s0,.25,0,.46a23.76,23.76,0,0,0,2.54-1.41c.22-.15.14-.73.24-1.1a.93.93,0,0,1,.31-.55.62.62,0,0,1,.58.08,3,3,0,0,1,.26.86c.85-.47,1.73-.93,2.57-1.46.14-.09.11-.47.13-.71,0-.41-.14-.94.53-1s.56.5.61,1a27.34,27.34,0,0,0,2.55-1.2c.19-.12.18-.66.19-1s.19-.69.6-.62c.19,0,.39.27.49.46a1.63,1.63,0,0,1,0,.64c.9-.29,1.76-.52,2.56-.87.18-.07.21-.59.22-.9s.14-.72.57-.66a.79.79,0,0,1,.49.46,2.08,2.08,0,0,1,0,.76L395,57.3c.29-.43-.29-1.29.61-1.34s.47.7.65,1.16l2.58-.19c.36-.44-.33-1.49.76-1.4.81.07.29.86.57,1.35l2.6.16c.17-.39,0-1.08.71-1s.35.67.51,1.09l2.7.47c0-.21,0-.43.06-.57s.33-.45.49-.44.57.3.55.42c-.13.89.44,1,1.07,1.17s1.1.33,1.7.51a1.4,1.4,0,0,1,.06-.61c.13-.2.36-.46.54-.46s.55.34.52.46c-.22,1,.46,1.28,1.18,1.54.54.2,1.05.45,1.61.7a3.66,3.66,0,0,0,0-.37c0-.41.25-.59.57-.5s.49.37.47.52c-.13.79.28,1.12.9,1.4s1.24.67,1.83,1c.1-.25.13-.54.28-.65a.74.74,0,0,1,.65,0,.6.6,0,0,1,.25.52c-.13.73.28,1,.85,1.3s1.2.64,1.85,1c0-.15,0-.31.11-.37s.43-.36.64-.35.45.35.42.5c-.13.78.33,1.06.91,1.32s1.2.62,1.88,1c0-.28,0-.53.06-.68a.84.84,0,0,1,.55-.36c.16,0,.32.24.48.38,0,0,0,0,0,.06-.28,1.12.46,1.5,1.28,1.84.29.12.56.33.86.42a1.55,1.55,0,0,0,.74,0l.09,0c1.46-.53,2.91-1.07,4.37-1.62h0s24.29,1.08,30.48-7.48a11.93,11.93,0,0,1,3.09-1.25,58.07,58.07,0,0,0,15.75-7.41l1-.65.12,0,.48-.4L487.87,48l2.73-1.73c.1-.06.2-.14.37-.26l-.05,0a34.17,34.17,0,0,1,4.68-2.07l.27-3.67c0-.08.09-.16.14-.24h0l.2-10.46H496v-.32H492V26.56H496v-.32h0V22.69h0V22.5h-3.57l-.15-.28h-.45l-.94-2.4c-1.27-.23-1.72-1.39-2.17-2.53l0-.05a.45.45,0,0,1,0-.2V17a.41.41,0,0,1,.33-.41.92.92,0,0,1,.46,0c1.33.34,2.64.76,4,1.11a40.67,40.67,0,0,0,8.33,1.29c2.74.13,5.49.17,8.23.12a46.74,46.74,0,0,0,13.92-2.37,4.35,4.35,0,0,1,1-.21c.34,0,.49.18.41.55A5,5,0,0,1,524,19.41a2.4,2.4,0,0,1-.92.39l-.06,0h0v0h0l0,0h0v0h0v0h0l0,.08h0l0,.06h0l-.14.41h0v0h0l0,.09h0v0h0l0,.11h0v.05h0l0,.05h0l0,0h0l0,.08h0v0h0l0,.09h0v0h0l0,.07h0l0,.09h0v0h0l-.07.18h0l-.05.13h0v0h0v0h0l0,.07h0v0h0l0,.05h0v0h0v0h0l0,0h0v0h0l0,0h0l0,.13h-.59c0,.1-.1.21-.15.29h-3.58v.19h0v3.55h0v.32h4v.11h0v.06h0v0h0v0h0v0h0v.08h0v.58h0v.1h0v.12h0v0h0v0h0v.06h0V28h0v0h0v.1h0v0h0v.07h0v.09h0v0h0v.2h0v.15h0v0h0v0h0v.07h0v0h0V29h0v0h0v0h0v.06h0v0s0,0,0,0h0v.08h-4v.32h-.23c0,1.52.09,3,.12,4.56,0,2,.07,3.93.11,5.9h0c.05.08.14.16.15.24s0,.13,0,.2a6,6,0,0,1,.85.15,7.65,7.65,0,0,1,4.89,3.56,2.83,2.83,0,0,0,.32.37S534.71,51.17,551.65,56c3,.86,6.2,1.66,9.57,2.36l.07-6.39c-3.9.13-8-2.56-9.25-7.6a11.73,11.73,0,0,1-.35-2c-.65-6.21,3.88-11.79,8.58-11.56,3.57.46,7,3.36,8.76,7.62a6.52,6.52,0,0,1,5.25-2.75c3.09.4,6,3,7.51,6.7s-.88,8.86-3.68,10.43a6.42,6.42,0,0,1-3.4.82l.07,7.23c9.12,1.8,20.12,3.85,31.5,5.72v-.62h1.34c0-2.24,0-4.42,0-6.6a.42.42,0,0,0-.09-.29c-.79-.47-1.37-1.24-2.34-1.44q-.82-.18-1.62-.42v0a13.49,13.49,0,0,1-3.71-1.78,8,8,0,0,1-2.75-2.93,2.77,2.77,0,0,1-.27-2,9.28,9.28,0,0,0,6.23,2.89,4.19,4.19,0,0,0,.5,0v0a15.12,15.12,0,0,0,6.37-.91c-.78-1.36-1.11-2.37-.27-3,.36.57.74,1.12,1.08,1.69a1.25,1.25,0,0,0,1.63.51c0-1.42,0-2.81,0-4.2,0-.13,0-.31-.09-.36a11.71,11.71,0,0,0-1.59-.95c-1-.44-2.11-.72-3.11-1.2a5.76,5.76,0,0,1-2.5-2.29,2.07,2.07,0,0,1-.29-1.73A6.41,6.41,0,0,0,609.13,43a10.64,10.64,0,0,0,4.83-.59c-.31-.73-.81-1.42-.11-2.25.19.32.34.58.5.83s.35.47.53.73a1.12,1.12,0,0,0,.07-1.52,3.24,3.24,0,0,0-1.09-.89c-.75-.35-1.55-.61-2.34-.9a6.45,6.45,0,0,1-3-2,7.51,7.51,0,0,1-.61-1.16L608,35a17.39,17.39,0,0,0,8,.75c-.29-.76-.78-1.42-.07-2.12a14.76,14.76,0,0,0,1.07,1.5,1.05,1.05,0,0,0,.88.3A18.52,18.52,0,0,0,621,34.15a5,5,0,0,0,2.51-4c0-.59.06-1.18.14-1.76,0-.15.21-.28.33-.42.13.15.35.28.37.44a11.33,11.33,0,0,1,.12,1.43,5.05,5.05,0,0,0,1.87,3.86,8.54,8.54,0,0,0,3.8,1.81.94.94,0,0,0,.77-.29,21,21,0,0,0,1.24-1.69,5.08,5.08,0,0,1,.19,1.17,5.7,5.7,0,0,1-.35,1.12,19.34,19.34,0,0,0,8.1-.68,5.17,5.17,0,0,1-.83,1.52,6.46,6.46,0,0,1-2.82,1.76c-.63.22-1.28.4-1.88.68a5.85,5.85,0,0,0-1.39.91,1.16,1.16,0,0,0,0,1.71c.33-.51.66-1,1-1.53.74.82.16,1.5-.12,2.23a11.15,11.15,0,0,0,4.82.59,6.72,6.72,0,0,0,4.42-2.13A3.28,3.28,0,0,1,642,43.71,10.41,10.41,0,0,1,637.63,46a5.13,5.13,0,0,0-2,1.16c-.28.28-.11,1-.15,1.55v2.59c1.26.16,1.38.12,2-.79.32-.47.6-1,.93-1.49,1,1.14.17,2.09-.31,3.2,4.76,1.19,9.32,1.66,13.34-2.15a6.83,6.83,0,0,1,0,.92A4.77,4.77,0,0,1,650,53.65a12.4,12.4,0,0,1-6.52,3.48,10.59,10.59,0,0,0-3.06,1.64.41.41,0,0,0-.15.33c0,1,0,4.65,0,5.74.21-.09,7.4,4.32,12.07,7.21,2.78.13,5.41.19,7.84.16h0a160.15,160.15,0,0,0,22.28,1.6c3.15,0,6.34,0,9.52,0a.52.52,0,0,0,.23-.44c0-.54.06-1.08.1-1.61a18.37,18.37,0,0,0,0-2,3.09,3.09,0,0,0-.09-.68.18.18,0,0,1,0-.14c0-.1.1-.2.14-.3s.16-.38.22-.57.13-.41.19-.61.11-.34.15-.5a1.14,1.14,0,0,0,.05-.37c0-.17,0-.34,0-.51a1.57,1.57,0,0,0-.12-.65c-.05-.13-.11-.24-.17-.37a.39.39,0,0,1-.07-.26,0,0,0,0,0,0,0,.32.32,0,0,0-.25-.08.19.19,0,0,1-.14-.05.32.32,0,0,0-.09,0c-.18,0-.36,0-.54-.06a.34.34,0,0,1-.35-.3.14.14,0,0,0-.11-.12L690.7,64l-.22-.06a1.55,1.55,0,0,1-.23-.06l-.17,0a.69.69,0,0,0-.42.1.59.59,0,0,1-.14,0l-.06,0-.14.18s-.08,0-.12-.06a.21.21,0,0,0-.11,0s0,.06-.05.09a.4.4,0,0,0,0,.11s0,.06-.06,0a.41.41,0,0,1-.11-.07,1.1,1.1,0,0,1-.15-.16.76.76,0,0,1-.09-.18,1.18,1.18,0,0,1,0-.2.48.48,0,0,1,0-.31s0,0,0-.05h0l-.32.2a.22.22,0,0,0-.11.14l-.06.13c0,.06-.05.06-.1,0a.26.26,0,0,1-.08-.21h0l-.08.09s0,0,0-.06a1.23,1.23,0,0,0,0-.19.47.47,0,0,1,0-.31s0,0,0,0,0-.07,0-.08a.31.31,0,0,0,0-.19s0,0,0,0l-.59.22h-.05a.12.12,0,0,0-.13.12.23.23,0,0,1-.16.17l-.08,0s0,0,0,.07a.16.16,0,0,1-.07.09l0,0-.18.26a.08.08,0,0,1-.06,0l-.06-.06a.86.86,0,0,1,0-.16.19.19,0,0,0,0-.07.14.14,0,0,1,0-.15,5.43,5.43,0,0,1,.16-.67l0-.07a.59.59,0,0,0,0-.13c0-.05,0-.09,0-.13l0,0a1.75,1.75,0,0,1,.15-.34,2.64,2.64,0,0,1,.38-.5,5.28,5.28,0,0,1,.57-.47.82.82,0,0,0,.26-.23.19.19,0,0,1,.14-.09.18.18,0,0,0,.16-.09.11.11,0,0,1,.08-.05c.14,0,.28,0,.43,0a.43.43,0,0,0,.25,0,.83.83,0,0,1,.35-.06c.06,0,.1,0,.14-.12h.06a.36.36,0,0,0,.22.11l.48.11a1.61,1.61,0,0,0,.69,0l.13,0a.27.27,0,0,0,.21-.07.07.07,0,0,1,.06,0l.23,0,.19,0h.5s.07,0,.1-.08h.2a.45.45,0,0,0,.29.09,7.82,7.82,0,0,1,1.35.25,8.48,8.48,0,0,1,1,.25,7,7,0,0,1,1.31.6l.29.15a2.85,2.85,0,0,1,.78.6l.07.09a3.76,3.76,0,0,1,.44.9.51.51,0,0,1,0,.3.58.58,0,0,0,0,.32.83.83,0,0,1,0,.27,7.22,7.22,0,0,1-.16,1.32c0,.23-.11.46-.15.69a2.18,2.18,0,0,0,0,.72,1.3,1.3,0,0,0,.69.89l.46.22a2.64,2.64,0,0,1,1,.7l.25.29a3.1,3.1,0,0,1,.54.87v.15a.62.62,0,0,0-.11.32.62.62,0,0,1-.24.47,1.25,1.25,0,0,0-.41.64l-.48,1.55a2,2,0,0,1-.17.32.1.1,0,0,1-.07,0,.08.08,0,0,1,0-.07.75.75,0,0,1,0-.15,2.44,2.44,0,0,0,.06-.26c0-.24.07-.49.1-.73a4.43,4.43,0,0,0,0-1.09c0-.24-.05-.48-.08-.71a.14.14,0,0,0,0-.07.78.78,0,0,1-.05-.14c0-.17-.08-.34-.11-.51a1.33,1.33,0,0,0-.73-1l-.24-.13a3.25,3.25,0,0,1-1-.74,1.28,1.28,0,0,1-.31-.49s0,0,0-.06a2.12,2.12,0,0,1-.12-.2c0-.14-.09-.29-.13-.43a6.22,6.22,0,0,0-.25-.84,1.3,1.3,0,0,0-.38-.54.52.52,0,0,0-.58-.09,3.54,3.54,0,0,0-.64.25.12.12,0,0,0-.06.08l-.14.53c0,.09,0,.19-.05.28a1.58,1.58,0,0,0-.09.36,6.76,6.76,0,0,0,0,.9c0,.18,0,.36,0,.54s.09.46.14.69c0,0,0,0,0,0a.15.15,0,0,1,.07.12.76.76,0,0,1,0,.15.82.82,0,0,0,0,.35c0,.1,0,.2,0,.3.15.73.29,1.46.44,2.18a6.52,6.52,0,0,0,.42,1.43.24.24,0,0,0,.22.15.42.42,0,0,1,.26.1l0,0a.6.6,0,0,0-.16,0l-.08,0c5-.07,10-.18,14.91-.31l.1,0a.29.29,0,0,0,.24-.28,3.87,3.87,0,0,0,0-.68c0-.48-.07-1-.11-1.44a2.61,2.61,0,0,1,0-.28,5.9,5.9,0,0,0-.06-.59,2,2,0,0,0-.09-.33,0,0,0,0,1,0,0,.23.23,0,0,1,0-.21,1.68,1.68,0,0,0,0-.74c-.08-.29-.16-.57-.25-.85a1.36,1.36,0,0,0-.24-.44l-.15-.22,0,0,0,0a1.86,1.86,0,0,0,0,.34c0,.32,0,.63,0,.95s0,.45,0,.68a.19.19,0,0,1,0,.07,1,1,0,0,0-.12.26,15.8,15.8,0,0,0-.53,2c0,.28-.11.55-.17.82a1.06,1.06,0,0,0,.06.53s0,.09,0,.14,0,.06-.05,0h0a.18.18,0,0,0-.22,0l-.16.18a.18.18,0,0,1-.09.06.06.06,0,0,1-.06,0,.09.09,0,0,1,0-.07l.09-.1s.06-.07,0-.11a.11.11,0,0,0-.13,0,.16.16,0,0,1-.15,0l-.12,0v0a.36.36,0,0,1,.21-.09.16.16,0,0,0,.17-.12,4.73,4.73,0,0,0,.33-1.11c.12-.57.23-1.14.34-1.71a2,2,0,0,0,0-.24.82.82,0,0,0,0-.27v-.12a.09.09,0,0,1,.05-.09s0,0,0,0c0-.18.08-.36.11-.54s0-.28,0-.42a4.21,4.21,0,0,0,0-.71c0-.09,0-.18-.07-.28s0-.14-.05-.21-.07-.29-.1-.43,0,0,0-.06a3,3,0,0,0-.5-.19.41.41,0,0,0-.46.07,1,1,0,0,0-.3.43c-.08.21-.13.43-.19.65s-.06.23-.1.34l-.1.15s0,0,0,0a1.21,1.21,0,0,1-.24.39,2.65,2.65,0,0,1-.78.58l-.19.1a1,1,0,0,0-.57.78c0,.14,0,.27-.08.4s0,.07,0,.11,0,0,0,.05l-.06.56a3.44,3.44,0,0,0,0,.85c0,.2,0,.39.08.58s0,.13,0,.2a.49.49,0,0,1,0,.12s0,.05,0,.05l-.05,0a1.58,1.58,0,0,1-.13-.26c-.13-.4-.26-.81-.38-1.22a1,1,0,0,0-.32-.5.48.48,0,0,1-.19-.36v-.44a1.91,1.91,0,0,1,.41-.68l.19-.23a2.2,2.2,0,0,1,.74-.55l.37-.17a1,1,0,0,0,.53-.7,1.32,1.32,0,0,0,0-.56c0-.18-.07-.36-.11-.54a5.65,5.65,0,0,1-.13-1.16h0a.48.48,0,0,0,0-.42h0a2.68,2.68,0,0,1,.41-.87h0a2.44,2.44,0,0,1,.64-.51l.23-.11a5,5,0,0,1,1-.47c.42-.15.87-.2,1.29-.37h0l.7,0h.77l.18,0s.05,0,.06,0a.19.19,0,0,0,.16.06h.1a1.41,1.41,0,0,0,.54,0l.38-.09.17,0h0s.06,0,.11,0a.65.65,0,0,1,.27,0,.44.44,0,0,0,.2,0l.33,0a.08.08,0,0,1,.07,0,.13.13,0,0,0,.12.07.14.14,0,0,1,.11.07.77.77,0,0,0,.21.19,3,3,0,0,1,.44.36,1.93,1.93,0,0,1,.3.39c.05.08.08.18.12.26a0,0,0,0,0,0,0,.13.13,0,0,1,0,.1.3.3,0,0,0,0,.1s0,0,0,.06c0,.18.11.35.13.52s0,.09,0,.12,0,0,0,.06a.49.49,0,0,1,0,.12s0,0-.05,0,0,0,0,0a1.43,1.43,0,0,1-.14-.2l0,0a.09.09,0,0,1-.06-.07.07.07,0,0,0,0-.05l-.06,0a.15.15,0,0,1-.12-.14.11.11,0,0,0-.11-.09h0l-.47-.17s0,0,0,0a.22.22,0,0,0,0,.14s0,0,0,.06,0,0,0,0a.33.33,0,0,1,0,.24.76.76,0,0,0,0,.15s0,0,0,0l-.06-.07h0a.21.21,0,0,1-.06.17s-.05,0-.08,0a.49.49,0,0,1-.06-.17h0c-.11-.06-.21-.14-.31-.2h0v0a.28.28,0,0,1,0,.24.77.77,0,0,1,0,.15.61.61,0,0,1-.07.14l-.12.13-.09,0s0,0,0,0a.27.27,0,0,0,0-.09.08.08,0,0,0,0-.06.11.11,0,0,0-.08,0s-.07.06-.1,0l-.1-.14-.06,0a.18.18,0,0,1-.1,0,.64.64,0,0,0-.33-.07l-.14,0a1.09,1.09,0,0,1-.17,0l-.18,0-.37.1h0c0,.22-.14.28-.28.3l-.46.05h0a.2.2,0,0,1-.14.06.3.3,0,0,0-.2.06l0,0a.28.28,0,0,1-.05.2c0,.1-.1.19-.14.29a1.23,1.23,0,0,0-.09.5,2.83,2.83,0,0,1,0,.41.66.66,0,0,0,0,.28c0,.14.08.27.11.4l.15.47c0,.15.11.3.17.45l.12.24a.14.14,0,0,1,0,.11,4.68,4.68,0,0,0-.09.83v0c0,.83.09,1.65.13,2.47a.42.42,0,0,0,.18.35.08.08,0,0,1,0,0,.11.11,0,0,1,0,.16l-.1,0s-.05,0-.06,0v0c11.64-.32,22.41-.77,30.65-1.16.05-.16.11-.32.16-.48l-.47-.15v0a8.1,8.1,0,0,1,1,.1c.33.08.64.23,1,.34a.79.79,0,0,1-.07-.94l.28.65c.1-.25.2-.44.26-.64s.15-.56.24-.83a5.6,5.6,0,0,1,.27-.55c-.08.65-.15,1.29-.23,1.93a1.73,1.73,0,0,1,1-.54c-.1.2-.2.37-.28.55a.47.47,0,0,0,0,.46l1,0a3.46,3.46,0,0,0,.91-.7,2.73,2.73,0,0,0,.37-.67.23.23,0,0,0-.16-.32,8.73,8.73,0,0,1-2.1-1.2,5,5,0,0,0-1.3-.68,2.44,2.44,0,0,1-.43-.21,2.73,2.73,0,0,1-1.2-3.53c.11-.25.19-.5.31-.74s.27-.47.4-.7l0-.05c-.07,0-.17.07-.2.13a.94.94,0,0,1-1.19.54,5,5,0,0,1-2.1-1,2,2,0,0,1-.71-1.51.88.88,0,0,1,.69-.93l.13,0-.37-1c-.13,0-.31,0-.5,0s-.48,0-.72,0a.8.8,0,0,0-.62.16.77.77,0,0,1-.74.14,11,11,0,0,0-3.57-.28,6.52,6.52,0,0,1-1.25-.09,2.21,2.21,0,0,1-1.56-.93.7.7,0,0,1-.79,0c-.09.09-.15.22-.24.23-.28.05-.58.15-.84,0a3.58,3.58,0,0,1-.48-.53c-.17.1-.31,0-.43-.19s-.23-.33-.36-.53c0,.09,0,.15,0,.21s-.06.14-.11.15-.14,0-.17-.07c-.12-.2-.22-.41-.33-.62a.81.81,0,0,1,0-.11,1.3,1.3,0,0,1-.14.12.22.22,0,0,1-.36-.15c0-.25,0-.5,0-.77-.45.1-.71-.25-1-.5-.13.1-.23.26-.34.27s-.27-.19-.34-.34l-.1-.15a.68.68,0,0,1-.12.12s-.13.06-.17,0a2.46,2.46,0,0,1-.24-.16,2,2,0,0,1-.64,0,.71.71,0,0,1-.34-.36c-.26-.48-.21-.59.39-1-.2-.14-.43-.27-.39-.56s.21-.29.4-.32c0,0,0,0,0,0-.15-.44,0-.59.42-.56.22,0,.44.06.65.09l.24,0A3.44,3.44,0,0,1,724,52c-.08-.3.07-.47.38-.45a1.28,1.28,0,0,1,1,.64l.11.2c0-.27.09-.56.4-.49s.36.25.51.36a3.15,3.15,0,0,1,.14-.45.41.41,0,0,1,.22-.17s.12.13.17.2a.28.28,0,0,1,0,.11l.06-.07c.09-.17.21-.3.42-.24a.48.48,0,0,1,.33.45,1.45,1.45,0,0,1-.08.36.8.8,0,0,0,.05.68,1.74,1.74,0,0,0,.41-.2h0a2.32,2.32,0,0,0,.13-.45c.06-.25.13-.31.43-.32l.19.76c.06-.18.1-.31.15-.44s.09-.28.15-.41a.44.44,0,0,1,.61-.18h0a3.75,3.75,0,0,1,.15.55c.06.29.13.35.42.31a.79.79,0,0,1,.91.54s0,.06.08.13l.25-.56c.08-.2.15-.41.25-.61a.56.56,0,0,1,.9-.25,2.36,2.36,0,0,1,.2.13l.46-.45a.48.48,0,0,1-.11-.6.63.63,0,0,1,.66-.29,1.26,1.26,0,0,1,.84.53,1,1,0,0,1,.1-.41c.07-.09.23-.11.36-.17a1.21,1.21,0,0,1,.1-.57h0a1.48,1.48,0,0,1,.58.13,1.79,1.79,0,0,1,.78.83.48.48,0,0,0,.09.16,1.07,1.07,0,0,1,.58,1,.69.69,0,0,1,.71.06,1.1,1.1,0,0,1,.33.5,1.51,1.51,0,0,1,0,.63.33.33,0,0,0,.15.38,1.81,1.81,0,0,1,.74,1.81.77.77,0,0,1-.18.36,1.9,1.9,0,0,1-1.22.54,1,1,0,0,1-.45-.17c-.08,0-.13-.13-.2-.17a.27.27,0,0,0-.43.19,1.16,1.16,0,0,1-.26.56h0a1.13,1.13,0,0,1-.37-.35.68.68,0,0,1-.46.53.67.67,0,0,1-.67-.13,1,1,0,0,1,0,.1c-.06.22-.18.28-.38.15s-.36-.31-.53-.46c.09.82,0,.94-.32,1.34h1.33q.58.12,1.17.27a.29.29,0,0,0,.33-.31,3.5,3.5,0,0,0-.13-.59c.14-.08.28,0,.4.1s.31.31.47.46a.89.89,0,0,0,.3.22.31.31,0,0,0,.46-.34,3.14,3.14,0,0,0-.31-.73,4.45,4.45,0,0,1-.26-.43c.14.13.29.24.42.38s.33.37.48.56a.73.73,0,0,0,.82.26l.41-.14.7-.15c.1,0,.17,0,.2-.15a.41.41,0,0,1,.51-.27,1.38,1.38,0,0,1,.53.26,2,2,0,0,0,.58.34c.13,0,.26.12.42.2,0-.14.1-.27.14-.4s.08-.33.28-.39a.26.26,0,0,0,.09-.18c0-.45.26-.65.69-.53a2.31,2.31,0,0,1,.54.28l.86.52h0c0-.2,0-.41-.05-.61-.07-.35-.17-.7-.24-1.05a2.9,2.9,0,0,1,0-.51,13.2,13.2,0,0,1,.53-2.48c0-.05,0-.11,0-.16s0-.35-.22-.39c-.07,0-.14-.09-.2-.13-.1.23-.15.24-.34,0s-.18-.26-.39-.26h0c0,.38-.22.42-.46.42-.76,0-1.2-.43-1.15-1.13a.38.38,0,0,1,0-.22c.12-.18,0-.3-.07-.43a.52.52,0,0,1-.08-.69l-1.08-.48c-.14-.06-.29-.09-.42-.16a4.12,4.12,0,0,0-.91-.33c-.51-.17-1-.39-1.52-.57h0c-.36,0-.74,0-1.1-.06A2.49,2.49,0,0,1,737,48l0-.06.18,0c-.11-.21-.21-.41-.35-.66.06.22-.17.37,0,.55-1,0-1.5-.72-2-1.38l-.13-.18-.55.4a1.11,1.11,0,0,1-1.21.1,6,6,0,0,1-.51-.37c-.05,0-.14.17-.24.19a.77.77,0,0,1-.42,0,1.23,1.23,0,0,1-.72-.77c-.18.41-.42.44-.69.1a.53.53,0,0,1,.08-.84c-.2-.25-.34-.52-.13-.82s.32-.12.51,0c.06-.28.06-.53.34-.74h0a1.56,1.56,0,0,1,1.33.31l.23.17a5.57,5.57,0,0,1-.23-.52.27.27,0,0,1,.25-.4,1.85,1.85,0,0,1,.57.1,2.33,2.33,0,0,1,1.1.79.67.67,0,0,0,.22-.63c0-.23,0-.47-.07-.7a.5.5,0,0,1,.84-.44,1.87,1.87,0,0,1,.68,1.07,1.08,1.08,0,0,1,1,.2l.14.12c1,.35,1.34,1.06,1.87,1.79l.27-.25c.14-.14.27-.3.41-.43a.58.58,0,0,1,.76-.08,1.63,1.63,0,0,1,.82,1.12.7.7,0,0,0,0,.14l.21-.57a4.37,4.37,0,0,0,0,1.53,4.87,4.87,0,0,1,.68.08,1.44,1.44,0,0,1,1.08,1,1.17,1.17,0,0,0,.4.78c.17-.06.29.06.37.23.08-.11.13-.26.23-.33a.55.55,0,0,1,.38-.08c.24,0,.34.17.34.43l.37.18c.29-.31.44-.32.77,0l.53.48,0,0c0-.3.06-.4.36-.45.15,0,.17-.08.15-.2s-.17-.3-.05-.48c0,0,0-.08-.06-.12-.32-.45-.63-.91-1-1.36h0a1.83,1.83,0,0,1-.88-1.51A3,3,0,0,0,744,43.1a4.67,4.67,0,0,1-1.46-1.78.29.29,0,0,0-.18-.15,1.87,1.87,0,0,0-.57-.08.94.94,0,0,1-.87-.45l-.19-.29a3.34,3.34,0,0,1-.15.38.61.61,0,0,1-.53.39.56.56,0,0,1-.57-.34,1.47,1.47,0,0,0-.49-.56.86.86,0,0,1-.35-.91.6.6,0,0,1-.84-.22c-.07-.09-.12-.19-.18-.28a.48.48,0,0,1,0-.65,2.87,2.87,0,0,0,.28-.67,1,1,0,0,1,.18-.23s.09-.08.1-.13c.13-.49.38-.6.82-.35l.16.09a2.72,2.72,0,0,1,0-.31,1.61,1.61,0,0,1,.1-.36c.11-.26.24-.3.58-.18,0-.06,0-.13,0-.19s0-.32,0-.47a.51.51,0,0,1,.37-.44.48.48,0,0,1,.51.24,4.07,4.07,0,0,1,.31.49c.59-.16.92,0,1.15.67.57-.15.75-.63.92-1.14l.16.09c0-.32-.05-.64,0-1a.57.57,0,0,1,.47-.56.54.54,0,0,1,.67.31c.15.31.26.65.4,1a.59.59,0,0,1,.66.36c.16.28.28.58.42.89.37-.1.38-.09.48.33a.54.54,0,0,0,.22.31,1.24,1.24,0,0,1,.52.89v-.18a1.43,1.43,0,0,1,.16-.95,1.22,1.22,0,0,0,.14-1,2.6,2.6,0,0,1,0-1.41.28.28,0,0,0-.13-.35l-.07.22-.22-.24c-.17.07-.32.19-.43.17s-.23-.19-.35-.3l-.05.14a.33.33,0,0,1-.56.17,1,1,0,0,1-.41-.78c0-.21.09-.32.31-.31a4.14,4.14,0,0,1,.46.09c.1-.82.1-.82.5-.79a.62.62,0,0,1,.3-.58s0-.1.06-.15l.18-.39h.09l.48.46c.15-.13.29,0,.44.12s.51.33.78.49a.73.73,0,0,0,.3,0l.31,0c.41,0,.57.11.61.52l.11.11a.78.78,0,0,1,.74.76c0,.15.06.23.22.27a.78.78,0,0,1,.48.46,1.63,1.63,0,0,1,.11.23,1.2,1.2,0,0,1,1.28.24c.1.1.23.16.32.26a1.87,1.87,0,0,1,.2.32l.56.08a.43.43,0,0,0,.25,0,.39.39,0,0,1,.49.06,1.23,1.23,0,0,1,.48.85.28.28,0,0,0,.11.17.53.53,0,0,1,.32.43.2.2,0,0,0,.06.12l.48.52c.23,0,.32.1.31.5a.51.51,0,0,1,.41.41c0,.12,0,.27-.12.31a.35.35,0,0,1-.29-.12,1.43,1.43,0,0,1-.19-.37,2.54,2.54,0,0,1-.07.47.34.34,0,0,1-.4.25l-.23-.48c-.46.11-.6,0-.79-.35-.11.25-.33.21-.52.17a.81.81,0,0,0-.59.1c-.39.23-.51.19-.77-.17l-.09-.12c0,.23,0,.47,0,.7a.76.76,0,0,1-.53.63.31.31,0,0,0-.15.15,23.26,23.26,0,0,1-2.36,3.76,10.24,10.24,0,0,0-.7,1.14c-.35.58-.68,1.17-1.06,1.73a1.65,1.65,0,0,0-.08,1.77c.12.19.21.41.33.61s.13.1.19.15l.07,0c-.06-.11-.11-.23-.18-.34s-.15-.12-.17-.2a1.06,1.06,0,0,1,0-.31h.27s.06,0,.1.06,0-.13,0-.26l.43.34c0-.07.06-.19.13-.24s.19,0,.29,0c.06-.31.12-.65.18-1h0c0,.22,0,.44,0,.67l.08,0a2.69,2.69,0,0,0,.2-.27c.3-.47.6-.94.91-1.4a4,4,0,0,1-.8,1.45l.27.19c.14-.13.3-.26.44-.41a3.93,3.93,0,0,1,1.31-1,1.63,1.63,0,0,0,.86-1,.37.37,0,0,0,0-.2c-.1-.17-.21-.32-.33-.5l-.3.26a6.22,6.22,0,0,1-.64.51.53.53,0,0,1-.67-.08,1.25,1.25,0,0,1-.08-1.61.31.31,0,0,0,.06-.13c0-.3.07-.33.38-.38-.22-.3-.1-.54.1-.77a2.8,2.8,0,0,1,1-.69c-.15-.22-.26-.44-.06-.68a.57.57,0,0,1,.72-.08c.27-.56.39-.59,1.5-.37h0c.22-.54.34-.58.84-.29l.37.23a.58.58,0,0,1,0-.21.41.41,0,0,1,.14-.21,1.21,1.21,0,0,1,1.26,0l.18.1a.67.67,0,0,0,.48.16c.27,0,.44.19.56.42a.29.29,0,0,0,.26.15,1.87,1.87,0,0,1,1.54.93c0,.06.11.08.17.12a5.48,5.48,0,0,1,.52.31.26.26,0,0,1,.05.36.59.59,0,0,0,0,.14,2.21,2.21,0,0,1-.12.59.83.83,0,0,1-1.51.19l-.09-.11c-.17.61-.68.69-1.17.77a2.54,2.54,0,0,1-1.73-.25,1.24,1.24,0,0,1-1.32.44s-.09,0-.14.05,0,0,0,0a6.51,6.51,0,0,1-2.81,2.46,9.68,9.68,0,0,0-1.24.8c.25,0,.46,0,.46.31.37,0,.47.18.35.47a1.71,1.71,0,0,1,.43.29.51.51,0,0,1,0,.39c0,.25-.25.17-.43.15,0,.19-.13.24-.29.11-.1.27.09.38.25.51.09-.5.23-.61.59-.46.12-.33-.07-.88.6-.85a1.87,1.87,0,0,1,.44-1.1,1,1,0,0,1,1.06-.25L755,47a.35.35,0,0,1,.45.18c.17-.76.37-1.46,1.21-1.72.07.19.12.36.17.49a3.28,3.28,0,0,1,.5-.17c.28-.05.2.26.34.37.35-.18.71-.52,1.06,0,.18-.16.34-.32.52-.47a1.3,1.3,0,0,1,.23-.18c.28-.17.43-.12.55.19l0,0a1.46,1.46,0,0,1,.28-.32.73.73,0,0,1,.43-.11c.34,0,.67.09,1,.15a1.35,1.35,0,0,1,.3.14h0c.21-.45.53-.51.88-.15.16.17.3.35.44.52a1.4,1.4,0,0,1,.84-.27.6.6,0,0,1,.6.75c0,.08,0,.16-.07.26a.6.6,0,0,1,.76.34,1,1,0,0,1,.07.91h.63a.9.9,0,0,1,.94.71c.07.22,0,.29-.19.36.49.44.42.92-.19,1.37a3.46,3.46,0,0,1,0,.71.78.78,0,0,1-.15.38.4.4,0,0,1-.43.19.36.36,0,0,1-.31-.4c0-.21,0-.42,0-.64a.89.89,0,0,0-.1-.37,1.35,1.35,0,0,1-.63.66c0-.13-.06-.24-.09-.39l-.47.22c-.2.1-.28.08-.36-.12a2.7,2.7,0,0,1-.09-.48,2.21,2.21,0,0,1,0-.37c0-.2,0-.42-.23-.5a.54.54,0,0,0-.62.32c-.06.16-.09.33-.14.49a.58.58,0,0,1-.39.44.26.26,0,0,1-.33-.24,4.13,4.13,0,0,1,.05-.58.45.45,0,0,0-.1.09,3.39,3.39,0,0,1-2.16,1.11c-.74.1-1.49.16-2.22.29a10,10,0,0,0-1.29.38,3.19,3.19,0,0,1-1.27.1,1.33,1.33,0,0,0-.56.06,9.54,9.54,0,0,1-2.35.54,3.74,3.74,0,0,1-1.1-.11,1.6,1.6,0,0,0-1.14.15,2.69,2.69,0,0,0-1.32,1.34,18.77,18.77,0,0,1-.82,1.69,6.34,6.34,0,0,1-.69.86.15.15,0,0,1-.09,0c-.28,0-.25.25-.2.43.13.45.29.9.45,1.4l.51-.42c.06.08.13.15.2.23a.21.21,0,0,0,.36-.07.52.52,0,0,1,.45-.35c.31,0,.46.25.57.48s.11.18.25.1.26,0,.34.11.27.47.4.68c.12-.08.27-.23.41-.23s.27.17.4.26a.62.62,0,0,1,0-.11.35.35,0,0,1,.44-.24.73.73,0,0,1,.54.59c.07.35.13.39.49.33l.22,0c-.59-1-.58-1.29.06-1.62a1.35,1.35,0,0,1-.41-1.57,1.26,1.26,0,0,1,.13-.26c.12-.19.23-.38.37-.56a1.08,1.08,0,0,1,.28-.24,1.28,1.28,0,0,1,.39-.13c.25-.06.45-.15.44-.46a.43.43,0,0,1,.06-.18.64.64,0,0,1,.64-.37c.27,0,.41.21.49.62.13-.19.23-.44.48-.32a2.48,2.48,0,0,1,.49.38c.06-.12.12-.29.21-.45a2.16,2.16,0,0,1,.27-.33.25.25,0,0,1,.37,0c.14.13.22.08.28-.07a.36.36,0,0,1,0-.09.6.6,0,0,1,.57-.37.66.66,0,0,1,.58.47.42.42,0,0,0,.14.22.24.24,0,0,0,.37-.07.58.58,0,0,1,.16-.15l.68.66c.1.09.18.12.29,0l.85-.57.22-.16c.37-.24.62-.18.85.21a.51.51,0,0,1,.74.17.18.18,0,0,0,.16,0c.31-.14.63-.28.93-.43a1.28,1.28,0,0,1,.79-.11.67.67,0,0,1,.55.74.29.29,0,0,0,.15.28.81.81,0,0,1,.27.39,3.5,3.5,0,0,0,.55,1.18l.2-.33a1.82,1.82,0,0,1,.7-.73.74.74,0,0,1,1.19.62c.56-.06.68.07.53.59l0,0a1,1,0,0,1,1.06,1.05c0,.11,0,.22,0,.32a3.63,3.63,0,0,1-.1.66,2.16,2.16,0,0,1-.25.44l.12.06,0,0a1.37,1.37,0,0,1,.84,1.74,1.94,1.94,0,0,1-1.18,1.4,5.29,5.29,0,0,1-2.06.54,1.35,1.35,0,0,1-1.39-.84.26.26,0,0,0-.17-.12,23.32,23.32,0,0,0-3.43-.35,1.5,1.5,0,0,0-.51.07l.27,0a23.29,23.29,0,0,1-2.34.27c-.7-.1-1.41-.18-2.11-.31a11.71,11.71,0,0,0-3.07-.16c-.35,0-.71,0-1.07,0-.06.35-.14.63-.44.78a.8.8,0,0,1,.11,1.33.57.57,0,0,1-.62.11,4.91,4.91,0,0,1-.44-.25.93.93,0,0,0-.83-.08,4.13,4.13,0,0,0-.45.17,1,1,0,0,1-1.12-.16c-.18-.14-.34-.29-.52-.45a2,2,0,0,0-.12.26,1.19,1.19,0,0,1-1.14.83.32.32,0,0,0-.27.19.7.7,0,0,1-.75.45,4.27,4.27,0,0,0-.87.08c-.26,0-.3.25-.15.48a2.12,2.12,0,0,0,1,.75,5.84,5.84,0,0,1,2.52,2c.54.69,1.07,1.39,1.61,2.07a2.16,2.16,0,0,0,1.22.82c.14,0,.28.2.38.34a.93.93,0,0,1,.13.34.83.83,0,0,0,.17.38l.6,0a3.78,3.78,0,0,1-.27-2c.21.65.37,1.32.62,1.95l.39,0c0-.43,0-.87.05-1.3a.92.92,0,0,1,.4-.7v1.84h0l.5-1.14c.15.23.15.23,0,1.17a2.74,2.74,0,0,1,1.69-.8l-.78.82,1.06-.06v.4c2.27,0,25.89-.23,37.45,4.91Zm-35.4-16.35-.43.51a11.08,11.08,0,0,1,2.47.23.39.39,0,0,0-.49-.33,1,1,0,0,1-.46,0C763.65,60.61,763.31,60.48,762.92,60.34Zm-1.4-.94c-.13.59-.68.82-.88,1.31a2.4,2.4,0,0,0,2-.61Zm-2,1.05c0,.27.09.37.35.28a1,1,0,0,0,.36-.21,2.58,2.58,0,0,0,.36-.38,2,2,0,0,1,.89-.7v-.1a4.05,4.05,0,0,0-1.1,0A1.25,1.25,0,0,0,759.47,60.45Zm-3.77-.21a.61.61,0,0,0,.51.4h0a5.3,5.3,0,0,0,.8,0c.55-.12,1.08-.27,1.62-.43a1.26,1.26,0,0,0,.45-.22,6.22,6.22,0,0,0,.5-.55,9.06,9.06,0,0,1-1-.28.3.3,0,0,0-.37,0,9.91,9.91,0,0,1-.82.63,1.14,1.14,0,0,1-1.24,0l-.22-.11C755.82,59.89,755.63,60,755.7,60.24Zm-1.4-15.52.07,0,.43-.47-.24-.19Zm-1.11.86a1.42,1.42,0,0,0,.71-.68,2,2,0,0,1-.4.21C753.23,45.16,753.21,45.35,753.19,45.58Zm8.14,4.06-.75,1v0l1.52-.94c-.07-.11-.15-.21-.21-.31l-.35.13A1.45,1.45,0,0,0,761.33,49.64Zm-5.49.63c-.12.18-.25.35-.39.54l.5-.14,0,0-.23.27a11.86,11.86,0,0,0,1-.73,1.91,1.91,0,0,1,1.06-.53l-1.61,1.36,0,.06h1.48a3.4,3.4,0,0,0,1.89-.5l1.36-.83c.12-.07.26-.12.39-.19a.79.79,0,0,0-.22-.05,10.17,10.17,0,0,1-3.05-.47.14.14,0,0,0-.14,0,1.18,1.18,0,0,1-1.11.1.2.2,0,0,0-.17,0A5.57,5.57,0,0,0,755.84,50.27Zm-3.72,1.28h.16a2.53,2.53,0,0,0,1.47-.65,2,2,0,0,1,.71-.48l-1.62,1.44a1,1,0,0,0,.31,0c.47-.16.94-.31,1.4-.51A1.33,1.33,0,0,0,755,51c.33-.38.63-.79.91-1.15l-.77-.26v0l-.05,0a3.31,3.31,0,0,1-2.5,1.45.15.15,0,0,0-.1,0Zm-1.77,0c.15,0,.25,0,.35-.06a2.42,2.42,0,0,1,1.13-.13c.27,0,.45-.14.64-.36-.1,0-.18,0-.21,0-.2.18-.35.11-.49-.08-.37.32-.55.3-.8-.13-.11.16-.23.3-.35.46l-.15,0Zm-6.49-9.4c0-.15-.07-.31-.09-.39l-.93-.25A1,1,0,0,0,743.86,42.13Zm4,10.49a.23.23,0,0,0-.23.23c0,.33-.09.67-.14,1l.07,0,.13-.15c.13-.13.24-.32.4-.37a2,2,0,0,0,1.11-.74,3.88,3.88,0,0,1,.45-.46,2,2,0,0,0-.19-.16v.06a.68.68,0,0,1-.81-.09.44.44,0,0,1-.37.55A2.1,2.1,0,0,1,747.85,52.62Zm-.07-16.93a7.31,7.31,0,0,0,.52-.84.14.14,0,0,0,0-.11,1.71,1.71,0,0,1-.53-.8A2.35,2.35,0,0,0,747.78,35.69ZM747.53,38a4,4,0,0,1,.15,1.53c-.14,1.17-.33,2.34-.5,3.52a.87.87,0,0,0,.29.91,1.15,1.15,0,0,1,.42,1.27c0,.2-.09.39-.14.59l.06,0a18.85,18.85,0,0,0,1-2,16.33,16.33,0,0,0,.51-2.09,10,10,0,0,1-.06,1.1c0,.36-.09.72-.14,1.08.19-.27.37-.54.57-.8a2.91,2.91,0,0,0,.49-1.09c0-.21.09-.43.12-.65a3,3,0,0,1,.51-1.21c-.07.59-.14,1.18-.22,1.76a2.28,2.28,0,0,0,.81-1.3,10.23,10.23,0,0,1,.23-1.1h.06c-.06.42-.11.85-.17,1.28l0,0,.66-1.24a1.54,1.54,0,0,1-1.07-.77l-.07.26a1.43,1.43,0,0,1-.61.85c-.33.2-.58.09-.67-.28,0-.11,0-.21,0-.34-.09.08-.16.16-.24.22-.32.27-.58.2-.71-.19a2.16,2.16,0,0,1,0-1.44c.11-.33.31-.37.54-.12a.14.14,0,0,1,0,.08c.13-.27.25-.51.35-.76,0,0,0-.11,0-.16V36l.28.17c0-.13,0-.22,0-.32a1.58,1.58,0,0,1,0-.31c0-.4.18-.5.54-.34,0,0,0,0,0,0a1.86,1.86,0,0,1-.06-.61.74.74,0,0,0-.11-.59l-.49-.21c-.05.15-.09.32-.16.48a.55.55,0,0,1-.18.26s-.16-.05-.25-.07c-.07.29-.09.3-.52.22a2,2,0,0,0-.33.27c-.28.44-.57.89-.81,1.36A2.27,2.27,0,0,0,747.53,38Zm-.14,7.84a4.59,4.59,0,0,0,.1-.51,1.18,1.18,0,0,0-.43-1.22.9.9,0,0,1-.28-1.28,4.65,4.65,0,0,0,.53-1.4,5.36,5.36,0,0,0,.08-1.83.2.2,0,0,0,0-.08c-.07.31-.1.62-.38.78s-.53-.07-.78-.24a.65.65,0,0,0,0,.11c-.13.76-.5.93-1.16.55l-.07,0-.66-.48a2,2,0,0,1,0,.28c0,.31.05.63-.17.91a.23.23,0,0,0,0,.16c.09.38.18.76.28,1.14a1.24,1.24,0,0,0,.19.36,4.11,4.11,0,0,1,.94,2.1,2.37,2.37,0,0,0,.11.46c.07.22.25.24.38,0a.54.54,0,0,0,.09-.25,3.83,3.83,0,0,0,0-.47c0-.29-.09-.59-.15-.94a5,5,0,0,1,.46,1.52V46a2.45,2.45,0,0,0,.5,1.31.35.35,0,0,0,.11.08c0-.29.09-.56.16-.82S747.31,46.09,747.39,45.82Zm-9.91-1.74a1.84,1.84,0,0,1,0,.25C737.59,44.32,737.66,44.36,737.48,44.08Zm-2.24,14.63v-.07l-1.08-.21a1.35,1.35,0,0,0-.63,0,5.55,5.55,0,0,1-2.06.24,1,1,0,0,1-1.05-.75l-.25.4.12.1a2.63,2.63,0,0,0,1.66.53c1,0,2-.07,3.06-.12C735.08,58.81,735.16,58.74,735.24,58.71ZM310.72,43.6a1.37,1.37,0,0,0,.43.17c.52,0,1.05,0,1.57-.08a2.9,2.9,0,0,0,.57-.18l0-.07h-2.46Zm-9.92-.16a8.33,8.33,0,0,0-.91.32c.72.19,1.37.32,2,.53a5.09,5.09,0,0,0,3.38-.17.59.59,0,0,0,.38-.3c.2-.63.71-.75,1.24-.85l2.52-.48a1.7,1.7,0,0,0-.28-.22c-1.26-.53-2.57-.15-3.85-.15-.06,0-.11.06-.17.09a13.79,13.79,0,0,1-1.5.6C302.68,43.05,301.73,43.22,300.8,43.44ZM297,41.75c0,.09,0,.19,0,.28l1.81-.51-.06-.23Zm-.92,1.86.07.16c2.14-.09,4-1.1,6.18-1.69l-2.25-.26a.88.88,0,0,0-.42.09c-.8.34-1.61.68-2.4,1C296.87,43.14,296.49,43.39,296.1,43.61ZM742,72.21l.84,0a5.32,5.32,0,0,0-.79-.41C742.07,71.92,742.06,72.07,742,72.21Zm-46.68,1.51h.12A.16.16,0,0,0,695.36,73.72Zm-2.87,0a.43.43,0,0,0,0,0l2.22,0,.06-.18a1.28,1.28,0,0,0,.06-.67l-.21-1a21,21,0,0,0-.68-2.59,1,1,0,0,0-.15-.33.24.24,0,0,1,0-.09c0-.29,0-.58.05-.87s0-.8,0-1.21a1.54,1.54,0,0,0-.06-.43.07.07,0,0,0,0,0,.05.05,0,0,0,0,0l-.2.28a1.89,1.89,0,0,0-.3.56c-.11.36-.22.71-.31,1.08a2,2,0,0,0-.07,1,.31.31,0,0,1-.05.26,0,0,0,0,0,0,0,2,2,0,0,0-.12.42,6.31,6.31,0,0,0-.07.76c0,.12,0,.24,0,.35-.05.61-.1,1.22-.14,1.83A4.3,4.3,0,0,0,692.49,73.7ZM632.61,59.1V65s4.82.12,4.82.12a13.64,13.64,0,0,0,0-2.13c0-1.26,0-2.52,0-3.86Zm-2.47-7.78h3.23V47.14h-3.23Zm-3.42-9.49h2.66V38.41h-2.66Zm-4,0h2.66V38.41h-2.66Zm-3,5.31v4.18h8.35V47.14Zm-1-5.31h2.65V38.41h-2.65Zm-1.15,23.7c0,.34,0,.56.47.58a49.19,49.19,0,0,0,11-.4c.23,0,.46-.1.71-.16V59.1H617.61v1.08C617.61,62,617.61,63.74,617.6,65.53Zm-3-14.19c.88,0,1.75,0,2.63,0,.11,0,.32-.22.33-.34,0-1.26,0-2.53,0-3.84h-3Zm-4,14.23,4.37.31V59.1h-4.37Zm-41.4-11,.05,5.17.87.12,4.09.81,0-7.14a7.2,7.2,0,0,1-1.21-.24,4.76,4.76,0,0,1-.77.55A5.81,5.81,0,0,1,569.18,54.61Zm-7.27,3.91c2.2.44,4.46.84,6.79,1.18V54.58a6.94,6.94,0,0,1-5-3.07,7.46,7.46,0,0,1-1.81.43ZM508.17,26.24h0v.23h3.16l.06,0h3.81v-.32h0V22.69h0V22.5h-7v.19h0Zm-9.53,0h.05v.32h4.14l0,0h0l.06,0h2.62v-.23h.07V22.69h-.07V22.5h-6.87v.19h-.05Zm-.18,3.29c0,1.52.09,3,.12,4.56,0,2,.07,3.94.11,5.91.07.08.16.15.17.23.07.89.13,1.78.19,2.67l.76-.16c.76-.15,1.51-.33,2.23-.53l2.78-.37c2.92-.39,5.83-.84,8.75-1.23.49-.06,1-.13,1.49-.17,0-.07,0-.14,0-.21s.1-.16.17-.23c.07-3.49.13-7,.2-10.47h-.2v-.32H511.8a1.5,1.5,0,0,1-.73.24h-7.89a1.47,1.47,0,0,1-.73-.24h-3.76v.32ZM427.32,69l.3-.14,1.12-.51.08,0-1-.52-.46-.23V69Zm-3.93-2.5h0a3,3,0,0,0,0,.54.15.15,0,0,0,.07.1l.48.28.75.4,1.45.76c0-.08,0-.15,0-.21v-.26h0a3.18,3.18,0,0,0,0-.63.36.36,0,0,0,0-.1,1,1,0,0,0-.08-.25.49.49,0,0,0-.2-.26c-.3-.18-.62-.35-.94-.51l-1.27-.65-.27-.14a.86.86,0,0,1,0,.16v.11C423.38,66.12,423.38,66.33,423.39,66.53Zm-3.88-2.06c0,.26.05.63.22.73.79.49,1.63.9,2.54,1.38v-.15a8.71,8.71,0,0,0,0-.9c0-.21-.06-.52-.2-.61l-.3-.17c-.71-.4-1.45-.78-2.26-1.2A6.77,6.77,0,0,0,419.51,64.47Zm-3.91-2.14c0,.24,0,.61.15.7.83.51,1.71.95,2.65,1.46h0c0-.45,0-.77,0-1.08s-.06-.48-.19-.55c-.82-.49-1.66-.93-2.61-1.44h0A8.6,8.6,0,0,0,415.6,62.33Zm-3.87-1.4a.8.8,0,0,0,.07.24.36.36,0,0,0,.07.1l0,0,.54.24.54.23,1.54.65h0c0-.36,0-.67,0-1,0-.07,0-.14,0-.21l0-.15,0-.07a.63.63,0,0,0-.16-.24s0,0-.05,0l-.15-.08L412.72,60l-1-.44h0C411.72,60.13,411.71,60.53,411.73,60.93Zm-3.88-1.2a.37.37,0,0,0,.07.18A.38.38,0,0,0,408,60h0l.22.07c.76.24,1.54.46,2.36.71v-.47a5.24,5.24,0,0,0,0-.69.49.49,0,0,0,0-.12.59.59,0,0,0-.19-.34.53.53,0,0,0-.14-.1l-.83-.28-1.59-.5h0C407.84,58.85,407.83,59.29,407.85,59.73Zm-3.91-.51,1,.17,1.77.29c0-.49,0-.91,0-1.34,0-.12-.11-.31-.2-.33q-.78-.16-1.59-.3l-1-.18ZM400,59l2.83.16h0V57.39L400,57.23V59Zm-3.86.23,2.73-.23V57.29h0l-.57.05-.57,0c-.44,0-.87.07-1.3.12a.14.14,0,0,0-.09,0,.47.47,0,0,0-.19.28C396.1,58.26,396.12,58.7,396.12,59.2Zm-3.68.66,2.09-.42.55-.11h0V57.7l-.48.1-2.16.46h0Zm-4,1.25v0l1.43-.48.11,0,.29-.1c.65-.22.89-.34,1-.71a5.68,5.68,0,0,0,0-1.07.71.71,0,0,1-.05-.15c-.34.11-.65.19-.94.29-.51.18-1,.35-1.5.55a.53.53,0,0,0-.28.35v.08C388.38,60.26,388.4,60.66,388.4,61.11Zm-3.13,10.94c-.07.16-.12.34-.19.53l.41.13c2.45.58,4.89,1.19,7.34,1.73,6,1.32,12.11,1.87,18.22.56,1.46-.31,2.89-.69,4.38-1a2.5,2.5,0,0,0-.11-.35c-.21-.51-.41-1-.64-1.53a13.44,13.44,0,0,0-8.58-7.78,20.61,20.61,0,0,0-11-.35A13.69,13.69,0,0,0,385.27,72.05Zm-.74-9.41a.09.09,0,0,0,0,0l0,.15c.84-.38,1.63-.73,2.41-1.12a.6.6,0,0,0,.28-.38s0,0,0,0,0-.24,0-.36c0-.29,0-.6,0-1l-.08,0c-.58.27-1.1.5-1.61.75C384.44,61.34,384.44,61.35,384.53,62.64ZM380.61,65h0L383,63.7l.19-.11a.45.45,0,0,0,.17-.21.65.65,0,0,0,0-.13c0-.41,0-.83,0-1.32l-.32.17c-.69.38-1.33.72-1.94,1.07a2,2,0,0,0-.25.14.29.29,0,0,0-.12.1.63.63,0,0,0-.16.34A10.29,10.29,0,0,0,380.61,65Zm-3.87,2.06h0c.42-.23.78-.45,1.14-.63a4.46,4.46,0,0,1,.55-.25,2,2,0,0,0,.72-.39,1.53,1.53,0,0,0,.29-1.72h0l-2.6,1.38a.41.41,0,0,0-.1.22C376.73,66.11,376.74,66.55,376.74,67.07Zm-3.87,1.79a0,0,0,0,0,0,0l.05.12,0,0c.83-.42,1.64-.83,2.44-1.25a.66.66,0,0,0,.18-.19h0a.36.36,0,0,0,0-.09v0c0-.41,0-.82,0-1.23-.14,0-.19,0-.22,0l-.9.45-.57.29c-.27.14-.48.24-.63.34C372.77,67.61,372.79,67.84,372.87,68.86Zm-3.47.35.25,0,1.81.21.24,0h0V68.07ZM294.09,33l1.38.13L296,32C295.09,31.44,294.89,31.53,294.09,33Zm-9.32-2.22c.54.2,1.09.39,1.62.6.21.09.49.2.56.38.18.42.5.39.84.41,1.06,0,2.12.1,3.18.13a1.39,1.39,0,0,0,.49-.16,4.92,4.92,0,0,0-3.21-.81,2.48,2.48,0,0,1-1.57-.34,2,2,0,0,0-1.87-.39C284.8,30.62,284.78,30.68,284.77,30.74Zm-7.58,5.14a10.11,10.11,0,0,0,1.19.35,11.93,11.93,0,0,0,2.89.33,6.93,6.93,0,0,1,2.57.11,12.32,12.32,0,0,0,1.82.29c.17,0,.35-.14.6-.25a6.09,6.09,0,0,0-4-.67,6.77,6.77,0,0,1-4.39-.3,1.65,1.65,0,0,0-.63,0C277.2,35.78,277.2,35.83,277.19,35.88Zm6.89,6.21c.85.06.93,0,1.06-.78-1.21-.19-2.42-.39-3.63-.55a7.27,7.27,0,0,0-2-.15c-1.91.29-3.81.68-5.79,1a9.7,9.7,0,0,0,.91.41,3,3,0,0,0,.88.22c1.16,0,2.33,0,3.49.05.11,0,.2.09.31.1a4.18,4.18,0,0,0,1.53,0A7.93,7.93,0,0,1,284.08,42.09Zm-55.9,11.73.06,5.77c1.61-.2,3.26-.4,4.95-.59l0-6.22a7.06,7.06,0,0,1-1.2-.23,5.46,5.46,0,0,1-.78.54A5.76,5.76,0,0,1,228.18,53.82Zm-7.27,6.78c2.18-.32,4.45-.64,6.8-.94V53.79a6.88,6.88,0,0,1-4.95-3.07,7.69,7.69,0,0,1-1.81.43Z"/></g></g></svg>